<?xml version="1.0" ?><!DOCTYPE svg  PUBLIC '-//W3C//DTD SVG 1.1//EN'  'http://www.w3.org/Graphics/SVG/1.1/DTD/svg11.dtd'><svg height="6.82666in" style="shape-rendering:geometricPrecision; text-rendering:geometricPrecision; image-rendering:optimizeQuality; fill-rule:evenodd; clip-rule:evenodd" viewBox="0 0 6.82666 6.82666" width="6.82666in" xml:space="preserve" xmlns="http://www.w3.org/2000/svg" xmlns:xlink="http://www.w3.org/1999/xlink"><defs><style type="text/css">
   <![CDATA[
    .fil1 {fill:none}
    .fil0 {fill:black}
   ]]>
  </style></defs><g id="Layer_x0020_1"><path class="fil0" d="M2.10441 1.70287c0.11011,0.11011 0.11011,0.288634 0,0.398744 -0.11011,0.11011 -0.288634,0.11011 -0.398744,0 -0.11011,-0.11011 -0.11011,-0.288634 0,-0.398744 0.11011,-0.11011 0.288634,-0.11011 0.398744,0zm-1.24903 -0.761898l0.188252 1.95377c0.000299213,0.0200748 0.00809843,0.0400551 0.0234173,0.0553661l2.99949 2.99949 0.000287402 0.000295276c0.0312402,0.0312402 0.0818937,0.0312402 0.11313,-3.93701e-006l1.76824 -1.76824 0.000295276 -0.000287402c0.0312402,-0.0312402 0.0312402,-0.0818937 -3.93701e-006,-0.11313l-2.99929 -2.99929c-0.0126929,-0.0129331 -0.0298228,-0.0216496 -0.0492638,-0.0235512l-0.000295276 0.000244094 -1.95037 -0.190996c-0.00715354,-0.0013189 -0.0146102,-0.00167717 -0.0222126,-0.000944882 -0.0439764,0.00423622 -0.0761929,0.0433268 -0.0719567,0.0873031l0.000271654 -2.75591e-005z"/></g><rect class="fil1" height="6.82666" width="6.82666"/></svg>